<?xml version="1.0" encoding="utf-8"?>
<svg xmlns="http://www.w3.org/2000/svg" xmlns:xlink="http://www.w3.org/1999/xlink" style="margin: auto; background: none; display: block; shape-rendering: auto;" width="218px" height="218px" viewBox="0 0 100 100" preserveAspectRatio="xMidYMid">
<g transform="rotate(0 50 50)">
  <rect x="48.5" y="22" rx="0.12" ry="0.12" width="3" height="12" fill="#1d0e0b">
    <animate attributeName="opacity" values="1;0" keyTimes="0;1" dur="1.7241379310344827s" begin="-1.6091954022988504s" repeatCount="indefinite"></animate>
  </rect>
</g><g transform="rotate(24 50 50)">
  <rect x="48.5" y="22" rx="0.12" ry="0.12" width="3" height="12" fill="#1d0e0b">
    <animate attributeName="opacity" values="1;0" keyTimes="0;1" dur="1.7241379310344827s" begin="-1.4942528735632181s" repeatCount="indefinite"></animate>
  </rect>
</g><g transform="rotate(48 50 50)">
  <rect x="48.5" y="22" rx="0.12" ry="0.12" width="3" height="12" fill="#1d0e0b">
    <animate attributeName="opacity" values="1;0" keyTimes="0;1" dur="1.7241379310344827s" begin="-1.379310344827586s" repeatCount="indefinite"></animate>
  </rect>
</g><g transform="rotate(72 50 50)">
  <rect x="48.5" y="22" rx="0.12" ry="0.12" width="3" height="12" fill="#1d0e0b">
    <animate attributeName="opacity" values="1;0" keyTimes="0;1" dur="1.7241379310344827s" begin="-1.2643678160919538s" repeatCount="indefinite"></animate>
  </rect>
</g><g transform="rotate(96 50 50)">
  <rect x="48.5" y="22" rx="0.12" ry="0.12" width="3" height="12" fill="#1d0e0b">
    <animate attributeName="opacity" values="1;0" keyTimes="0;1" dur="1.7241379310344827s" begin="-1.1494252873563218s" repeatCount="indefinite"></animate>
  </rect>
</g><g transform="rotate(120 50 50)">
  <rect x="48.5" y="22" rx="0.12" ry="0.12" width="3" height="12" fill="#1d0e0b">
    <animate attributeName="opacity" values="1;0" keyTimes="0;1" dur="1.7241379310344827s" begin="-1.0344827586206895s" repeatCount="indefinite"></animate>
  </rect>
</g><g transform="rotate(144 50 50)">
  <rect x="48.5" y="22" rx="0.12" ry="0.12" width="3" height="12" fill="#1d0e0b">
    <animate attributeName="opacity" values="1;0" keyTimes="0;1" dur="1.7241379310344827s" begin="-0.9195402298850573s" repeatCount="indefinite"></animate>
  </rect>
</g><g transform="rotate(168 50 50)">
  <rect x="48.5" y="22" rx="0.12" ry="0.12" width="3" height="12" fill="#1d0e0b">
    <animate attributeName="opacity" values="1;0" keyTimes="0;1" dur="1.7241379310344827s" begin="-0.8045977011494252s" repeatCount="indefinite"></animate>
  </rect>
</g><g transform="rotate(192 50 50)">
  <rect x="48.5" y="22" rx="0.12" ry="0.12" width="3" height="12" fill="#1d0e0b">
    <animate attributeName="opacity" values="1;0" keyTimes="0;1" dur="1.7241379310344827s" begin="-0.689655172413793s" repeatCount="indefinite"></animate>
  </rect>
</g><g transform="rotate(216 50 50)">
  <rect x="48.5" y="22" rx="0.12" ry="0.12" width="3" height="12" fill="#1d0e0b">
    <animate attributeName="opacity" values="1;0" keyTimes="0;1" dur="1.7241379310344827s" begin="-0.5747126436781609s" repeatCount="indefinite"></animate>
  </rect>
</g><g transform="rotate(240 50 50)">
  <rect x="48.5" y="22" rx="0.12" ry="0.12" width="3" height="12" fill="#1d0e0b">
    <animate attributeName="opacity" values="1;0" keyTimes="0;1" dur="1.7241379310344827s" begin="-0.4597701149425287s" repeatCount="indefinite"></animate>
  </rect>
</g><g transform="rotate(264 50 50)">
  <rect x="48.5" y="22" rx="0.12" ry="0.12" width="3" height="12" fill="#1d0e0b">
    <animate attributeName="opacity" values="1;0" keyTimes="0;1" dur="1.7241379310344827s" begin="-0.3448275862068965s" repeatCount="indefinite"></animate>
  </rect>
</g><g transform="rotate(288 50 50)">
  <rect x="48.5" y="22" rx="0.12" ry="0.12" width="3" height="12" fill="#1d0e0b">
    <animate attributeName="opacity" values="1;0" keyTimes="0;1" dur="1.7241379310344827s" begin="-0.22988505747126434s" repeatCount="indefinite"></animate>
  </rect>
</g><g transform="rotate(312 50 50)">
  <rect x="48.5" y="22" rx="0.12" ry="0.12" width="3" height="12" fill="#1d0e0b">
    <animate attributeName="opacity" values="1;0" keyTimes="0;1" dur="1.7241379310344827s" begin="-0.11494252873563217s" repeatCount="indefinite"></animate>
  </rect>
</g><g transform="rotate(336 50 50)">
  <rect x="48.5" y="22" rx="0.12" ry="0.12" width="3" height="12" fill="#1d0e0b">
    <animate attributeName="opacity" values="1;0" keyTimes="0;1" dur="1.7241379310344827s" begin="0s" repeatCount="indefinite"></animate>
  </rect>
</g>
<!-- [ldio] generated by https://loading.io/ --></svg>